<svg width="4053" height="851" viewBox="0 0 4053 851" fill="none" xmlns="http://www.w3.org/2000/svg">
<path d="M1427.64 420.96C1419.4 452.141 1410.53 482.524 1401.02 512.11C1391.52 541.696 1382.11 569.599 1372.79 595.819H1319.55C1312.38 579.52 1304.85 560.918 1296.96 540.013C1289.07 519.108 1281.19 496.786 1273.3 473.046C1265.41 449.306 1257.52 424.326 1249.64 398.106C1241.75 371.886 1234.04 345.135 1226.51 317.852H1295.35C1298.58 332.734 1302.34 348.767 1306.64 365.951C1310.94 383.136 1315.43 400.675 1320.09 418.569C1324.75 436.462 1329.59 453.912 1334.61 470.92C1339.63 487.927 1344.65 503.518 1349.67 517.691C1355.04 501.392 1360.33 484.561 1365.53 467.199C1370.73 449.838 1375.66 432.476 1380.32 415.114C1384.98 397.752 1389.37 380.833 1393.5 364.357C1397.62 347.881 1401.29 332.379 1404.52 317.852H1454.53C1457.76 332.379 1461.35 347.881 1465.29 364.357C1469.23 380.833 1473.45 397.752 1477.93 415.114C1482.41 432.476 1487.25 449.838 1492.45 467.199C1497.65 484.561 1502.94 501.392 1508.31 517.691C1512.97 503.518 1517.81 487.927 1522.83 470.92C1527.85 453.912 1532.78 436.462 1537.62 418.569C1542.46 400.675 1547.03 383.136 1551.34 365.951C1555.64 348.767 1559.4 332.734 1562.63 317.852H1629.85C1622.33 345.135 1614.62 371.886 1606.73 398.106C1598.84 424.326 1590.95 449.306 1583.07 473.046C1575.18 496.786 1567.29 519.108 1559.4 540.013C1551.52 560.918 1543.81 579.52 1536.28 595.819H1483.58C1474.25 569.599 1464.66 541.696 1454.8 512.11C1444.94 482.524 1435.89 452.141 1427.64 420.96ZM1678.79 458.164C1678.79 433.716 1682.47 412.279 1689.82 393.854C1697.17 375.43 1706.94 360.105 1719.13 347.881C1731.32 335.657 1745.3 326.444 1761.08 320.244C1776.85 314.043 1792.98 310.943 1809.48 310.943C1848.2 310.943 1878.4 322.812 1900.09 346.552C1921.78 370.292 1932.63 405.724 1932.63 452.849C1932.63 456.393 1932.54 460.379 1932.36 464.808C1932.18 469.237 1931.91 473.223 1931.55 476.766H1746.02C1747.81 499.089 1755.79 516.362 1769.95 528.586C1784.11 540.81 1804.64 546.922 1831.53 546.922C1847.3 546.922 1861.73 545.505 1874.82 542.67C1887.9 539.836 1898.21 536.824 1905.74 533.635L1914.35 586.252C1910.76 588.024 1905.83 589.884 1899.56 591.833C1893.28 593.782 1886.11 595.553 1878.04 597.148C1869.98 598.742 1861.28 600.071 1851.96 601.134C1842.64 602.197 1833.14 602.728 1823.46 602.728C1798.72 602.728 1777.21 599.096 1758.92 591.833C1740.64 584.569 1725.58 574.471 1713.75 561.538C1701.92 548.605 1693.13 533.37 1687.4 515.83C1681.66 498.291 1678.79 479.069 1678.79 458.164ZM1867.56 429.464C1867.56 420.606 1866.3 412.191 1863.79 404.218C1861.28 396.246 1857.61 389.337 1852.77 383.491C1847.93 377.644 1842.01 373.038 1835.02 369.672C1828.03 366.306 1819.69 364.623 1810.01 364.623C1799.98 364.623 1791.19 366.483 1783.66 370.203C1776.13 373.924 1769.77 378.796 1764.57 384.819C1759.37 390.843 1755.34 397.752 1752.47 405.547C1749.6 413.342 1747.63 421.315 1746.55 429.464H1867.56ZM2067.62 456.038C2067.62 484.384 2074.43 506.618 2088.05 522.74C2101.68 538.862 2120.5 546.922 2144.52 546.922C2154.92 546.922 2163.79 546.479 2171.14 545.594C2178.49 544.708 2184.5 543.733 2189.16 542.67V383.225C2183.42 379.327 2175.8 375.695 2166.3 372.329C2156.8 368.963 2146.67 367.28 2135.92 367.28C2112.25 367.28 2094.95 375.252 2084.02 391.197C2073.08 407.142 2067.62 428.755 2067.62 456.038ZM2254.23 587.315C2241.32 591.213 2225.1 594.756 2205.56 597.945C2186.02 601.134 2165.49 602.728 2143.98 602.728C2121.75 602.728 2101.86 599.362 2084.29 592.63C2066.72 585.898 2051.75 576.243 2039.38 563.664C2027.01 551.086 2017.51 535.85 2010.88 517.956C2004.25 500.063 2000.93 479.955 2000.93 457.633C2000.93 435.665 2003.71 415.734 2009.27 397.841C2014.82 379.947 2022.98 364.623 2033.73 351.867C2044.49 339.111 2057.58 329.279 2072.99 322.37C2088.41 315.46 2106.16 312.006 2126.23 312.006C2139.86 312.006 2151.87 313.6 2162.27 316.789C2172.66 319.978 2181.63 323.521 2189.16 327.419V194.016L2254.23 183.386V587.315ZM2336.51 458.164C2336.51 433.716 2340.19 412.279 2347.54 393.854C2354.89 375.43 2364.66 360.105 2376.85 347.881C2389.04 335.657 2403.02 326.444 2418.79 320.244C2434.57 314.043 2450.7 310.943 2467.19 310.943C2505.92 310.943 2536.12 322.812 2557.81 346.552C2579.5 370.292 2590.35 405.724 2590.35 452.849C2590.35 456.393 2590.26 460.379 2590.08 464.808C2589.9 469.237 2589.63 473.223 2589.27 476.766H2403.73C2405.53 499.089 2413.5 516.362 2427.67 528.586C2441.83 540.81 2462.35 546.922 2489.24 546.922C2505.02 546.922 2519.45 545.505 2532.54 542.67C2545.62 539.836 2555.93 536.824 2563.46 533.635L2572.06 586.252C2568.48 588.024 2563.55 589.884 2557.27 591.833C2551 593.782 2543.83 595.553 2535.76 597.148C2527.7 598.742 2519 600.071 2509.68 601.134C2500.36 602.197 2490.86 602.728 2481.18 602.728C2456.44 602.728 2434.93 599.096 2416.64 591.833C2398.36 584.569 2383.3 574.471 2371.47 561.538C2359.64 548.605 2350.85 533.37 2345.12 515.83C2339.38 498.291 2336.51 479.069 2336.51 458.164ZM2525.28 429.464C2525.28 420.606 2524.02 412.191 2521.51 404.218C2519 396.246 2515.33 389.337 2510.49 383.491C2505.65 377.644 2499.73 373.038 2492.74 369.672C2485.75 366.306 2477.41 364.623 2467.73 364.623C2457.69 364.623 2448.91 366.483 2441.38 370.203C2433.85 373.924 2427.49 378.796 2422.29 384.819C2417.09 390.843 2413.06 397.752 2410.19 405.547C2407.32 413.342 2405.35 421.315 2404.27 429.464H2525.28ZM2746.31 595.819C2728.38 559.323 2710.01 517.425 2691.18 470.123C2672.36 422.82 2655.24 372.064 2639.82 317.852H2709.2C2713.14 333.442 2717.71 350.184 2722.91 368.077C2728.11 385.971 2733.67 403.864 2739.59 421.757C2745.5 439.651 2751.6 457.013 2757.87 473.843C2764.14 490.674 2769.97 505.821 2775.35 519.285C2780.73 505.821 2786.46 490.674 2792.56 473.843C2798.65 457.013 2804.66 439.651 2810.57 421.757C2816.49 403.864 2822.14 385.971 2827.51 368.077C2832.89 350.184 2837.55 333.442 2841.5 317.852H2908.72C2893.3 372.064 2876.18 422.82 2857.36 470.123C2838.54 517.425 2820.16 559.323 2802.24 595.819H2746.31ZM2950.13 458.164C2950.13 433.716 2953.8 412.279 2961.15 393.854C2968.5 375.43 2978.27 360.105 2990.46 347.881C3002.65 335.657 3016.64 326.444 3032.41 320.244C3048.19 314.043 3064.32 310.943 3080.81 310.943C3119.53 310.943 3149.74 322.812 3171.43 346.552C3193.12 370.292 3203.97 405.724 3203.97 452.849C3203.97 456.393 3203.88 460.379 3203.7 464.808C3203.52 469.237 3203.25 473.223 3202.89 476.766H3017.35C3019.15 499.089 3027.12 516.362 3041.29 528.586C3055.45 540.81 3075.97 546.922 3102.86 546.922C3118.64 546.922 3133.07 545.505 3146.15 542.67C3159.24 539.836 3169.55 536.824 3177.08 533.635L3185.68 586.252C3182.1 588.024 3177.17 589.884 3170.89 591.833C3164.62 593.782 3157.45 595.553 3149.38 597.148C3141.31 598.742 3132.62 600.071 3123.3 601.134C3113.98 602.197 3104.48 602.728 3094.8 602.728C3070.06 602.728 3048.55 599.096 3030.26 591.833C3011.98 584.569 2996.92 574.471 2985.09 561.538C2973.25 548.605 2964.47 533.37 2958.73 515.83C2953 498.291 2950.13 479.069 2950.13 458.164ZM3138.89 429.464C3138.89 420.606 3137.64 412.191 3135.13 404.218C3132.62 396.246 3128.95 389.337 3124.11 383.491C3119.27 377.644 3113.35 373.038 3106.36 369.672C3099.37 366.306 3091.03 364.623 3081.35 364.623C3071.31 364.623 3062.53 366.483 3055 370.203C3047.47 373.924 3041.11 378.796 3035.91 384.819C3030.71 390.843 3026.68 397.752 3023.81 405.547C3020.94 413.342 3018.97 421.315 3017.89 429.464H3138.89ZM3385.74 601.134C3366.38 600.78 3350.34 598.654 3337.61 594.756C3324.88 590.858 3314.75 585.278 3307.22 578.014C3299.69 570.751 3294.41 561.715 3291.36 550.908C3288.31 540.102 3286.79 527.789 3286.79 513.97V194.016L3351.86 183.386V501.746C3351.86 509.541 3352.49 516.096 3353.74 521.411C3355 526.726 3357.24 531.243 3360.46 534.964C3363.69 538.684 3368.08 541.519 3373.64 543.468C3379.2 545.416 3386.28 546.922 3394.88 547.985L3385.74 601.134ZM3717.02 456.57C3717.02 478.538 3713.79 498.557 3707.34 516.628C3700.89 534.698 3691.74 550.111 3679.91 562.867C3668.08 575.623 3653.83 585.544 3637.16 592.63C3620.49 599.717 3602.11 603.26 3582.03 603.26C3561.96 603.26 3543.67 599.717 3527.18 592.63C3510.69 585.544 3496.53 575.623 3484.69 562.867C3472.86 550.111 3463.63 534.698 3457 516.628C3450.36 498.557 3447.05 478.538 3447.05 456.57C3447.05 434.602 3450.36 414.671 3457 396.778C3463.63 378.884 3472.95 363.56 3484.96 350.804C3496.97 338.048 3511.22 328.216 3527.72 321.307C3544.21 314.397 3562.31 310.943 3582.03 310.943C3601.75 310.943 3619.95 314.397 3636.62 321.307C3653.29 328.216 3667.54 338.048 3679.37 350.804C3691.21 363.56 3700.44 378.884 3707.07 396.778C3713.7 414.671 3717.02 434.602 3717.02 456.57ZM3650.33 456.57C3650.33 428.932 3644.33 407.053 3632.32 390.931C3620.31 374.809 3603.55 366.749 3582.03 366.749C3560.52 366.749 3543.76 374.809 3531.75 390.931C3519.74 407.053 3513.73 428.932 3513.73 456.57C3513.73 484.561 3519.74 506.706 3531.75 523.005C3543.76 539.304 3560.52 547.454 3582.03 547.454C3603.55 547.454 3620.31 539.304 3632.32 523.005C3644.33 506.706 3650.33 484.561 3650.33 456.57ZM3985.91 458.164C3985.91 429.464 3979.37 407.142 3966.29 391.197C3953.2 375.252 3932.14 367.28 3903.09 367.28C3897 367.28 3890.64 367.546 3884 368.077C3877.37 368.609 3870.83 369.76 3864.37 371.532V530.446C3870.11 534.344 3877.73 537.976 3887.23 541.342C3896.73 544.708 3906.86 546.391 3917.62 546.391C3941.28 546.391 3958.58 538.419 3969.51 522.474C3980.45 506.529 3985.91 485.093 3985.91 458.164ZM4052.6 457.101C4052.6 478.361 4049.82 497.848 4044.26 515.565C4038.71 533.281 4030.73 548.517 4020.33 561.272C4009.94 574.028 3996.94 583.949 3981.34 591.036C3965.75 598.122 3948.09 601.665 3928.37 601.665C3915.11 601.665 3902.92 600.071 3891.8 596.882C3880.69 593.693 3871.54 590.15 3864.37 586.252V694.144H3799.3V326.887C3812.57 323.344 3828.88 319.978 3848.24 316.789C3867.6 313.6 3888.04 312.006 3909.55 312.006C3931.78 312.006 3951.68 315.372 3969.24 322.104C3986.81 328.836 4001.78 338.491 4014.15 351.07C4026.52 363.648 4036.02 378.884 4042.65 396.778C4049.28 414.671 4052.6 434.779 4052.6 457.101Z" fill="#292C31"/>
<path d="M253.147 850.939L0.353027 425.687L253.147 0.562012H758.605L1011.4 425.687L758.605 850.939H253.147Z" fill="#8224E3"/>
<path d="M723.277 107.229L588.879 163.567C559.207 175.889 533.121 195.717 513.093 221.171L359.282 419.429L304.278 415.884L258.483 471.083L340.491 529.826L309.132 623.891L379.815 557.932L485.591 459.436L404.952 575.656L551.546 680.862L587.137 618.321L565.235 566.921L696.771 352.71C713.713 324.975 723.395 293.29 724.895 260.671L731.739 113.053C731.657 111.004 730.623 109.116 728.954 107.967C727.284 106.818 725.177 106.544 723.277 107.229Z" fill="white"/>
<path d="M452.106 629.695L404.24 595.829L280.013 765.904L452.106 629.695Z" fill="white"/>
</svg>
